<svg xmlns="http://www.w3.org/2000/svg" viewBox="0 0 32 32" fill="#25D366">
  <path d="M16.004 0C7.176 0 0 7.176 0 16.004c0 2.826.736 5.586 2.133 8.023L0 32l8.191-2.08A15.95 15.95 0 0016.004 32C24.828 32 32 24.824 32 16.004 32 7.176 24.828 0 16.004 0zm0 29.396a13.37 13.37 0 01-6.82-1.865l-.489-.29-5.073 1.33 1.353-4.944-.318-.507a13.348 13.348 0 01-2.053-7.116c0-7.385 6.01-13.4 13.4-13.4 7.385 0 13.396 6.015 13.396 13.4 0 7.39-6.01 13.392-13.396 13.392z"/>
  <path d="M23.375 19.383c-.367-.184-2.172-1.072-2.508-1.195-.336-.123-.58-.184-.825.184-.244.367-.948 1.195-1.163 1.44-.214.244-.428.275-.795.092-.367-.184-1.55-.571-2.951-1.822-1.09-.973-1.828-2.175-2.043-2.542-.214-.367-.023-.566.161-.749.166-.164.367-.428.55-.642.184-.214.245-.367.367-.612.123-.244.062-.459-.03-.642-.092-.184-.825-1.99-1.131-2.725-.298-.715-.6-.619-.825-.63-.214-.01-.459-.012-.703-.012-.245 0-.642.092-1.009.459-.367.367-1.4 1.368-1.4 3.336s1.433 3.869 1.633 4.136c.2.265 2.824 4.312 6.844 6.048.956.412 1.703.658 2.284.843.96.305 1.833.262 2.524.159.77-.115 2.172-.888 2.479-1.746.306-.857.306-1.593.214-1.746-.092-.153-.336-.245-.703-.428z"/>
</svg>
